<svg xmlns="http://www.w3.org/2000/svg" width="75" height="13" viewBox="0 0 75 13" fill="none">
<path d="M0.223244 0.191884C0.0681406 0.375269 -0.011 0.611005 0.00202416 0.850834V11.2622C-0.0139912 11.5025 0.0655162 11.7393 0.223244 11.9212L0.256191 11.9588L6.0879 6.12714V5.98594L0.256191 0.158936L0.223244 0.191884Z" fill="url(#paint0_linear_308_10980)"/>
<path d="M8.01767 8.07098L6.08789 6.12708V5.98587L8.01767 4.04197L8.06003 4.07021L10.3711 5.3787C11.03 5.75053 11.03 6.36242 10.3711 6.73896L8.06945 8.04744L8.01767 8.07098Z" fill="url(#paint1_linear_308_10980)"/>
<path d="M8.07415 8.04277L6.08789 6.0565L0.223236 11.9212C0.356238 12.0395 0.526478 12.1077 0.704435 12.1137C0.882393 12.1197 1.05684 12.0632 1.19754 11.9541L8.07415 8.04277" fill="url(#paint2_linear_308_10980)"/>
<path d="M8.07415 4.07026L1.19754 0.163629C1.05776 0.0529789 0.883445 -0.00484684 0.705245 0.000318361C0.527045 0.00548357 0.356372 0.0733096 0.223236 0.19187L6.08789 6.05652L8.07415 4.07026Z" fill="url(#paint3_linear_308_10980)"/>
<path opacity="0.2" d="M8.01767 8.00041L1.19754 11.8835C1.06196 11.9858 0.896724 12.0412 0.726862 12.0412C0.557 12.0412 0.391765 11.9858 0.256183 11.8835V11.8835L0.223236 11.9165L0.256183 11.9541C0.391765 12.0564 0.557 12.1118 0.726862 12.1118C0.896724 12.1118 1.06196 12.0564 1.19754 11.9541L8.07415 8.04277L8.01767 8.00041Z" fill="#3C3C43" fill-opacity="0.6"/>
<path opacity="0.12" d="M0.223257 11.8553C0.0720726 11.6686 -0.00201816 11.4311 0.0161585 11.1916V11.2622C0.000143219 11.5024 0.0796497 11.7393 0.237377 11.9212L0.270325 11.8882L0.223257 11.8553Z" fill="#3C3C43" fill-opacity="0.6"/>
<path opacity="0.12" d="M10.3711 6.66839L8.01767 8.00041L8.06003 8.04277L10.3711 6.73428C10.5075 6.6766 10.6258 6.5832 10.7136 6.46392C10.8014 6.34464 10.8554 6.2039 10.87 6.0565C10.8406 6.19044 10.7801 6.3156 10.6934 6.42188C10.6068 6.52816 10.4963 6.6126 10.3711 6.66839Z" fill="#3C3C43" fill-opacity="0.6"/>
<path opacity="0.25" d="M1.19757 0.229576L10.3711 5.44469C10.4964 5.50048 10.6068 5.58492 10.6934 5.6912C10.7801 5.79748 10.8406 5.92264 10.87 6.05658C10.8555 5.90918 10.8015 5.76843 10.7137 5.64916C10.6258 5.52988 10.5075 5.43648 10.3711 5.3788L1.19757 0.16368C0.543325 -0.212863 0.00204468 0.0977855 0.00204468 0.850871V0.921473C0.016165 0.168387 0.543325 -0.14226 1.19757 0.229576Z" fill="white"/>
<path d="M35.4873 3.48116C34.9121 3.48252 34.3501 3.65443 33.8725 3.97515C33.395 4.29588 33.0232 4.75102 32.8043 5.28302C32.5854 5.81502 32.5292 6.39998 32.6428 6.96393C32.7563 7.52789 33.0346 8.04551 33.4423 8.45133C33.85 8.85715 34.3689 9.13295 34.9334 9.24386C35.4979 9.35476 36.0826 9.29579 36.6136 9.0744C37.1445 8.85301 37.5979 8.47913 37.9164 8.00006C38.2349 7.52099 38.4042 6.95824 38.4028 6.38297C38.4084 5.9992 38.3367 5.61824 38.1919 5.26277C38.0472 4.90729 37.8325 4.58457 37.5604 4.31381C37.2884 4.04306 36.9647 3.82981 36.6085 3.68676C36.2524 3.54372 35.8711 3.47379 35.4873 3.48116V3.48116ZM35.4873 8.14454C35.1347 8.1692 34.7829 8.08721 34.4775 7.90924C34.1721 7.73127 33.9273 7.46555 33.7749 7.14662C33.6226 6.82768 33.5697 6.47028 33.6231 6.12089C33.6766 5.77149 33.8339 5.44625 34.0747 5.18745C34.3154 4.92865 34.6284 4.74826 34.9731 4.66973C35.3177 4.59119 35.678 4.61815 36.0071 4.74709C36.3362 4.87603 36.6189 5.101 36.8184 5.39274C37.018 5.68448 37.1252 6.02951 37.126 6.38297C37.137 6.60693 37.1031 6.83083 37.0261 7.04146C36.9492 7.25208 36.8309 7.44518 36.6782 7.60936C36.5255 7.77354 36.3414 7.90548 36.1369 7.99739C35.9324 8.08931 35.7115 8.13934 35.4873 8.14454ZM29.1239 3.48116C28.5486 3.48252 27.9866 3.65443 27.5091 3.97515C27.0315 4.29588 26.6597 4.75102 26.4408 5.28302C26.222 5.81502 26.1657 6.39998 26.2793 6.96393C26.3928 7.52789 26.6711 8.04551 27.0788 8.45133C27.4865 8.85715 28.0055 9.13295 28.5699 9.24386C29.1344 9.35476 29.7191 9.29579 30.2501 9.0744C30.781 8.85301 31.2344 8.47913 31.5529 8.00006C31.8714 7.52099 32.0407 6.95824 32.0393 6.38297C32.0449 5.9992 31.9732 5.61824 31.8285 5.26277C31.6837 4.90729 31.469 4.58457 31.1969 4.31381C30.9249 4.04306 30.6012 3.82981 30.245 3.68676C29.8889 3.54372 29.5076 3.47379 29.1239 3.48116V3.48116ZM29.1239 8.14454C28.7713 8.1692 28.4194 8.08721 28.114 7.90924C27.8086 7.73127 27.5638 7.46555 27.4115 7.14662C27.2591 6.82768 27.2062 6.47028 27.2596 6.12089C27.3131 5.77149 27.4704 5.44625 27.7112 5.18745C27.9519 4.92865 28.2649 4.74826 28.6096 4.66973C28.9542 4.59119 29.3145 4.61815 29.6436 4.74709C29.9727 4.87603 30.2554 5.101 30.4549 5.39274C30.6545 5.68448 30.7617 6.02951 30.7625 6.38297C30.7735 6.60693 30.7396 6.83083 30.6626 7.04146C30.5857 7.25208 30.4674 7.44518 30.3147 7.60936C30.162 7.77354 29.9779 7.90548 29.7734 7.99739C29.5689 8.08931 29.348 8.13934 29.1239 8.14454ZM21.5587 4.3756V5.6046H24.5083C24.462 6.18347 24.2214 6.72968 23.8255 7.15451C23.5296 7.45596 23.1737 7.69195 22.7809 7.8472C22.3881 8.00245 21.967 8.07351 21.545 8.05578C20.6758 8.05578 19.8422 7.71049 19.2276 7.09587C18.613 6.48125 18.2677 5.64765 18.2677 4.77844C18.2677 3.90924 18.613 3.07564 19.2276 2.46102C19.8422 1.8464 20.6758 1.50111 21.545 1.50111C22.3783 1.48871 23.1829 1.80516 23.7845 2.38189L24.6517 1.51476C24.2447 1.11227 23.7615 0.79504 23.2304 0.581659C22.6993 0.368279 22.131 0.263039 21.5587 0.272106C20.9517 0.248483 20.3462 0.34764 19.7784 0.563633C19.2107 0.779625 18.6923 1.10801 18.2545 1.52911C17.8167 1.95021 17.4684 2.45535 17.2305 3.01428C16.9926 3.5732 16.87 4.1744 16.87 4.78185C16.87 5.38931 16.9926 5.99051 17.2305 6.54943C17.4684 7.10836 17.8167 7.61351 18.2545 8.0346C18.6923 8.4557 19.2107 8.78409 19.7784 9.00008C20.3462 9.21607 20.9517 9.31523 21.5587 9.2916C22.1427 9.31493 22.7251 9.21445 23.2676 8.99675C23.8101 8.77906 24.3004 8.44907 24.7063 8.02847C25.4233 7.24082 25.8053 6.20489 25.7714 5.14031C25.7739 4.88409 25.7533 4.62815 25.71 4.3756H21.5587ZM52.4953 5.33149C52.3173 4.80762 51.9843 4.35019 51.5405 4.01977C51.0967 3.68935 50.563 3.50153 50.01 3.48116C49.6366 3.48043 49.2669 3.55631 48.9239 3.70411C48.5809 3.85191 48.2719 4.06849 48.0159 4.34046C47.7599 4.61243 47.5625 4.93401 47.4357 5.28532C47.3089 5.63664 47.2556 6.01022 47.2789 6.38297C47.2731 7.00624 47.469 7.61468 47.8375 8.11741C48.206 8.62013 48.7272 8.99015 49.3233 9.17222C49.9195 9.35428 50.5585 9.33861 51.145 9.12754C51.7314 8.91647 52.2339 8.52134 52.5773 8.00115L51.5873 7.31838C51.4397 7.56437 51.2303 7.7675 50.98 7.90763C50.7297 8.04776 50.4471 8.12001 50.1602 8.11723C49.8643 8.12945 49.5716 8.05186 49.3206 7.89466C49.0695 7.73747 48.8719 7.50801 48.7537 7.23644L52.6387 5.63192L52.4953 5.33149ZM48.5352 6.30104C48.5214 6.08895 48.55 5.87624 48.6194 5.67535C48.6888 5.47446 48.7976 5.28944 48.9394 5.13111C49.0812 4.97279 49.2531 4.84435 49.4452 4.75331C49.6372 4.66227 49.8455 4.61046 50.0578 4.60092C50.2778 4.58749 50.4969 4.63928 50.6876 4.74981C50.8783 4.86034 51.0321 5.02468 51.1298 5.22225L48.5352 6.30104ZM45.3808 9.11408H46.6576V0.579357H45.3808V9.11408ZM43.2915 4.1298H43.2437C43.053 3.91258 42.8176 3.73912 42.5536 3.62128C42.2896 3.50344 42.0033 3.444 41.7143 3.44703C40.9681 3.48321 40.2645 3.80509 39.7492 4.34596C39.2339 4.88683 38.9465 5.60522 38.9465 6.35225C38.9465 7.09927 39.2339 7.81766 39.7492 8.35853C40.2645 8.8994 40.9681 9.22128 41.7143 9.25747C42.0038 9.26327 42.2909 9.20508 42.5553 9.08705C42.8197 8.96903 43.0548 8.79407 43.2437 8.57469H43.2915V8.99118C43.2915 10.1041 42.6975 10.6981 41.7416 10.6981C41.4223 10.6911 41.1122 10.5894 40.8509 10.4058C40.5895 10.2222 40.3886 9.96512 40.2736 9.66713L39.1675 10.1246C39.372 10.6382 39.7276 11.0777 40.1872 11.3849C40.6468 11.6921 41.1888 11.8526 41.7416 11.8452C43.2369 11.8452 44.4727 10.9644 44.4727 8.82049V3.65186H43.2915V4.1298ZM41.8235 8.14454C41.3762 8.11665 40.9563 7.91928 40.6494 7.59262C40.3424 7.26597 40.1716 6.83461 40.1716 6.38638C40.1716 5.93816 40.3424 5.5068 40.6494 5.18015C40.9563 4.85349 41.3762 4.65612 41.8235 4.62823C42.0422 4.63767 42.2567 4.69099 42.4543 4.78502C42.6519 4.87906 42.8286 5.01188 42.9739 5.1756C43.1191 5.33931 43.2299 5.53057 43.2997 5.73799C43.3696 5.94541 43.3969 6.16475 43.3803 6.38297C43.3989 6.60193 43.3729 6.8224 43.3039 7.03103C43.2349 7.23967 43.1243 7.43214 42.9788 7.5968C42.8332 7.76147 42.6558 7.89491 42.4573 7.98906C42.2587 8.0832 42.0431 8.1361 41.8235 8.14454V8.14454ZM58.4765 0.579357H55.4176V9.11408H56.6944V5.87771H58.4765C58.8404 5.90386 59.2057 5.85475 59.5498 5.73346C59.8939 5.61217 60.2093 5.4213 60.4763 5.17274C60.7434 4.92418 60.9564 4.62328 61.102 4.28878C61.2477 3.95428 61.3228 3.59336 61.3228 3.22853C61.3228 2.86371 61.2477 2.50279 61.102 2.1683C60.9564 1.8338 60.7434 1.53289 60.4763 1.28433C60.2093 1.03577 59.8939 0.844899 59.5498 0.723609C59.2057 0.602319 58.8404 0.553214 58.4765 0.579357V0.579357ZM58.4765 4.67602H56.6944V1.76739H58.5038C58.6957 1.76739 58.8857 1.80518 59.063 1.87861C59.2402 1.95204 59.4013 2.05967 59.537 2.19535C59.6727 2.33103 59.7803 2.49211 59.8537 2.66938C59.9271 2.84665 59.9649 3.03665 59.9649 3.22853C59.9649 3.42042 59.9271 3.61042 59.8537 3.78769C59.7803 3.96497 59.6727 4.12604 59.537 4.26172C59.4013 4.3974 59.2402 4.50503 59.063 4.57846C58.8857 4.65189 58.6957 4.68968 58.5038 4.68968L58.4765 4.67602ZM66.3557 3.45385C65.8908 3.42518 65.4276 3.53343 65.0235 3.76521C64.6194 3.99699 64.2921 4.34213 64.0821 4.75796L65.2087 5.22908C65.3225 5.02383 65.4933 4.85595 65.7005 4.74569C65.9077 4.63543 66.1424 4.58752 66.3762 4.60775C66.5383 4.58882 66.7025 4.60235 66.8593 4.64757C67.0161 4.69279 67.1623 4.76877 67.2895 4.8711C67.4166 4.97343 67.522 5.10005 67.5997 5.24357C67.6774 5.38709 67.7257 5.54463 67.7418 5.70702V5.78895C67.3312 5.57314 66.8742 5.46065 66.4104 5.46122C65.195 5.46122 63.9524 6.144 63.9524 7.38665C63.9644 7.65078 64.0294 7.9098 64.1434 8.14833C64.2575 8.38685 64.4184 8.60002 64.6165 8.77516C64.8145 8.9503 65.0458 9.08386 65.2965 9.16788C65.5472 9.25191 65.8122 9.2847 66.0758 9.26429C66.3962 9.28202 66.7155 9.21421 67.0011 9.06784C67.2867 8.92146 67.5281 8.70177 67.7008 8.4313H67.7418V9.11408H68.9708V5.82992C68.9708 4.33463 67.8374 3.46751 66.3831 3.46751L66.3557 3.45385ZM66.1987 8.13088C65.7822 8.13088 65.2019 7.91922 65.2019 7.40714C65.2019 6.72436 65.9256 6.49221 66.5674 6.49221C66.973 6.48221 67.3739 6.58124 67.7281 6.77898C67.6853 7.14978 67.5094 7.49247 67.2332 7.74355C66.9571 7.99464 66.5992 8.1371 66.226 8.14454L66.1987 8.13088ZM73.4498 3.65186L71.9887 7.35251H71.9477L70.4319 3.65186H69.0664L71.34 8.82732L70.0427 11.7018H71.3742L74.87 3.65186H73.4498ZM61.9791 9.11408H63.2491V0.579357H61.9791V9.11408Z" fill="#3C3C43" fill-opacity="0.6"/>
<defs>
<linearGradient id="paint0_linear_308_10980" x1="5.57015" y1="0.742577" x2="-2.32783" y2="8.64056" gradientUnits="userSpaceOnUse">
<stop stop-color="#00A0FF"/>
<stop offset="0.01" stop-color="#00A1FF"/>
<stop offset="0.26" stop-color="#00BEFF"/>
<stop offset="0.51" stop-color="#00D2FF"/>
<stop offset="0.76" stop-color="#00DFFF"/>
<stop offset="1" stop-color="#00E3FF"/>
</linearGradient>
<linearGradient id="paint1_linear_308_10980" x1="11.2324" y1="6.05647" x2="-0.153307" y2="6.05647" gradientUnits="userSpaceOnUse">
<stop stop-color="#FFE000"/>
<stop offset="0.41" stop-color="#FFBD00"/>
<stop offset="0.78" stop-color="#FFA500"/>
<stop offset="1" stop-color="#FF9C00"/>
</linearGradient>
<linearGradient id="paint2_linear_308_10980" x1="6.9963" y1="7.13906" x2="-3.71635" y2="17.847" gradientUnits="userSpaceOnUse">
<stop stop-color="#FF3A44"/>
<stop offset="1" stop-color="#C31162"/>
</linearGradient>
<linearGradient id="paint3_linear_308_10980" x1="-1.25469" y1="-3.27232" x2="3.5274" y2="1.50977" gradientUnits="userSpaceOnUse">
<stop stop-color="#32A071"/>
<stop offset="0.07" stop-color="#2DA771"/>
<stop offset="0.48" stop-color="#15CF74"/>
<stop offset="0.8" stop-color="#06E775"/>
<stop offset="1" stop-color="#00F076"/>
</linearGradient>
</defs>
</svg>